<svg width="40" height="41" viewBox="0 0 40 41" fill="none" xmlns="http://www.w3.org/2000/svg">
<path d="M25.0925 1.55387L21.1595 0.500015L17.8451 12.8696L14.8528 1.70225L10.9197 2.75611L14.1527 14.8216L6.10008 6.76899L3.22089 9.64818L12.0536 18.481L1.05386 15.5336L0 19.4666L12.0186 22.687C11.881 22.0935 11.8082 21.4751 11.8082 20.8397C11.8082 16.3421 15.4542 12.6961 19.9518 12.6961C24.4494 12.6961 28.0954 16.3421 28.0954 20.8397C28.0954 21.471 28.0235 22.0856 27.8876 22.6756L38.8103 25.6023L39.8641 21.6693L27.7977 18.4361L38.7982 15.4885L37.7443 11.5555L25.6784 14.7885L33.731 6.73593L30.8518 3.85674L22.1416 12.567L25.0925 1.55387Z" fill="#FF820A"/>
<path d="M27.8769 22.7214C27.5397 24.147 26.8278 25.4277 25.851 26.4538L33.764 34.3669L36.6432 31.4877L27.8769 22.7214Z" fill="#FF820A"/>
<path d="M25.771 26.5366C24.7824 27.5463 23.5331 28.2998 22.1321 28.6881L25.0115 39.4341L28.9445 38.3802L25.771 26.5366Z" fill="#FF820A"/>
<path d="M21.9852 28.7274C21.3352 28.8945 20.6539 28.9833 19.9518 28.9833C19.1996 28.9833 18.4712 28.8813 17.7797 28.6904L14.8977 39.4462L18.8307 40.5L21.9852 28.7274Z" fill="#FF820A"/>
<path d="M17.6407 28.6507C16.2611 28.2431 15.034 27.48 14.0656 26.4674L6.13315 34.3999L9.01234 37.2791L17.6407 28.6507Z" fill="#FF820A"/>
<path d="M13.9994 26.3973C13.0476 25.3783 12.3543 24.1147 12.0243 22.7111L1.06595 25.6474L2.1198 29.5804L13.9994 26.3973Z" fill="#FF820A"/>
</svg>
