<svg width="16" height="17" viewBox="0 0 16 17" fill="none" xmlns="http://www.w3.org/2000/svg">
<path d="M15.0938 1.40625C15.3438 1.15625 15.75 1.34375 15.75 1.65625V6.125C15.75 6.34375 15.5625 6.5 15.375 6.5H10.875C10.5625 6.5 10.375 6.125 10.625 5.875L12.3125 4.1875C11.2188 3.0625 9.6875 2.375 8 2.375C4.71875 2.375 2.0625 4.9375 1.875 8.15625C1.84375 8.375 1.6875 8.5 1.5 8.5H0.625C0.40625 8.5 0.21875 8.34375 0.25 8.125C0.4375 4.03125 3.84375 0.75 8 0.75C10.125 0.75 12.0625 1.625 13.4688 3.03125L15.0938 1.40625ZM15.3438 8.5C15.5625 8.5 15.75 8.6875 15.7188 8.90625C15.5312 13 12.125 16.25 8 16.25C5.84375 16.25 3.90625 15.4062 2.5 14L0.875 15.625C0.625 15.875 0.25 15.6875 0.25 15.375V10.875C0.25 10.6875 0.40625 10.5 0.625 10.5H5.09375C5.40625 10.5 5.59375 10.9062 5.34375 11.1562L3.65625 12.8438C4.75 13.9688 6.28125 14.625 8 14.625C11.25 14.625 13.9062 12.0938 14.0938 8.875C14.125 8.65625 14.2812 8.5 14.4688 8.5H15.3438Z" fill="white"/>
</svg>
