<svg width="21" height="21" viewBox="0 0 21 21" fill="none" xmlns="http://www.w3.org/2000/svg">
<path d="M19.8438 18.8203C20.0391 19.0156 20.0391 19.3281 19.8438 19.4844L18.9453 20.3828C18.7891 20.5781 18.4766 20.5781 18.2812 20.3828L13.5547 15.6562C13.4766 15.5391 13.4375 15.4219 13.4375 15.3047V14.7969C11.9922 16.0078 10.1562 16.75 8.125 16.75C3.63281 16.75 0 13.1172 0 8.625C0 4.17188 3.63281 0.5 8.125 0.5C12.5781 0.5 16.25 4.17188 16.25 8.625C16.25 10.6562 15.4688 12.5312 14.2578 13.9375H14.7656C14.8828 13.9375 15 14.0156 15.1172 14.0938L19.8438 18.8203ZM8.125 14.875C11.5625 14.875 14.375 12.1016 14.375 8.625C14.375 5.1875 11.5625 2.375 8.125 2.375C4.64844 2.375 1.875 5.1875 1.875 8.625C1.875 12.1016 4.64844 14.875 8.125 14.875Z" fill="#D4D3D9"/>
</svg>
