<svg width="16" height="17" viewBox="0 0 16 17" fill="none" xmlns="http://www.w3.org/2000/svg">
<path d="M14.125 7.90625C14.1562 8.3125 14.1562 8.71875 14.125 9.09375L15.125 9.6875C15.4062 9.84375 15.5625 10.1875 15.4688 10.5312C15.125 11.8438 14.4062 13.0312 13.4688 14C13.2188 14.2188 12.8438 14.2812 12.5625 14.125L11.5625 13.5312C11.3125 13.7188 10.8438 14 10.5312 14.125V15.2812C10.5312 15.625 10.3125 15.9062 9.96875 16C8.6875 16.3438 7.28125 16.3438 6 16C5.6875 15.9375 5.4375 15.5938 5.4375 15.2812V14.125C5.125 14 4.65625 13.7188 4.40625 13.5312L3.40625 14.125C3.125 14.2812 2.75 14.2188 2.5 14C1.5625 13.0312 0.84375 11.8438 0.5 10.5312C0.40625 10.1875 0.5625 9.84375 0.84375 9.6875L1.84375 9.09375C1.8125 8.9375 1.8125 8.6875 1.8125 8.5C1.8125 8.34375 1.8125 8.09375 1.84375 7.90625L0.84375 7.34375C0.5625 7.1875 0.40625 6.84375 0.5 6.5C0.84375 5.1875 1.5625 4 2.5 3.03125C2.75 2.8125 3.125 2.75 3.40625 2.90625L4.40625 3.5C4.65625 3.3125 5.125 3.03125 5.4375 2.90625V1.75C5.4375 1.40625 5.65625 1.125 6 1.03125C7.28125 0.6875 8.6875 0.6875 9.96875 1.03125C10.2812 1.09375 10.5312 1.4375 10.5312 1.75V2.90625C10.8438 3.03125 11.3125 3.3125 11.5625 3.5L12.5625 2.90625C12.8438 2.75 13.2188 2.8125 13.4688 3.03125C14.4062 4 15.125 5.1875 15.4688 6.5C15.5625 6.84375 15.4062 7.1875 15.125 7.34375L14.125 7.90625ZM12.4688 9.90625C12.7188 8.59375 12.7188 8.4375 12.4688 7.125L13.8438 6.34375C13.6562 5.78125 13.1562 4.96875 12.7812 4.53125L11.4062 5.3125C10.4375 4.46875 10.2812 4.375 9.03125 3.9375V2.34375C8.75 2.3125 8.28125 2.25 8 2.25C7.6875 2.25 7.21875 2.3125 6.9375 2.34375V3.9375C5.6875 4.375 5.5625 4.46875 4.5625 5.3125L3.1875 4.53125C2.71875 5.0625 2.375 5.6875 2.125 6.34375L3.5 7.125C3.25 8.4375 3.25 8.59375 3.5 9.90625L2.125 10.6875C2.3125 11.25 2.8125 12.0625 3.1875 12.5L4.5625 11.7188C5.53125 12.5625 5.6875 12.6562 6.9375 13.0938V14.6875C7.21875 14.7188 7.6875 14.7812 8 14.7812C8.28125 14.7812 8.75 14.7188 9.03125 14.6875V13.0938C10.2812 12.6562 10.4062 12.5625 11.4062 11.7188L12.7812 12.5C13.1562 12.0625 13.6562 11.25 13.8438 10.6875L12.4688 9.90625ZM8 5.5C9.625 5.5 11 6.875 11 8.5C11 10.1562 9.625 11.5 8 11.5C6.34375 11.5 5 10.1562 5 8.5C5 6.875 6.34375 5.5 8 5.5ZM8 10C8.8125 10 9.5 9.34375 9.5 8.5C9.5 7.6875 8.8125 7 8 7C7.15625 7 6.5 7.6875 6.5 8.5C6.5 9.34375 7.15625 10 8 10Z" fill="white"/>
</svg>
