<svg width="42" height="42" viewBox="0 0 42 42" fill="none" xmlns="http://www.w3.org/2000/svg">
<path d="M21 0.90625C32.1562 0.90625 41.3438 10.0938 41.3438 21.25C41.3438 32.4883 32.1562 41.5938 21 41.5938C9.76172 41.5938 0.65625 32.4883 0.65625 21.25C0.65625 10.0938 9.76172 0.90625 21 0.90625ZM32.5664 9.68359C26.5781 3.69531 17.2266 3.36719 10.8281 8.37109L33.8789 31.4219C38.8828 25.0234 38.5547 15.6719 32.5664 9.68359ZM9.35156 32.8984C15.3398 38.8867 24.6914 39.2148 31.0898 34.2109L8.03906 11.1602C3.03516 17.5586 3.36328 26.9102 9.35156 32.8984Z" fill="#ACACB7"/>
</svg>
